<?xml version="1.0" standalone="no"?><!DOCTYPE svg PUBLIC "-//W3C//DTD SVG 1.1//EN" "http://www.w3.org/Graphics/SVG/1.1/DTD/svg11.dtd"><svg t="1580206313306" class="icon" viewBox="0 0 1024 1024" version="1.1" xmlns="http://www.w3.org/2000/svg" p-id="3359" xmlns:xlink="http://www.w3.org/1999/xlink" width="200" height="200"><defs><style type="text/css"></style></defs><path d="M604.586667 682.666667a128.042667 128.042667 0 0 1 241.493333 0H853.333333v-153.002667L750.336 426.666667H640v85.333333a42.666667 42.666667 0 0 1-85.333333 0V384a42.666667 42.666667 0 0 1 42.666666-42.666667h170.666667a42.666667 42.666667 0 0 1 30.165333 12.501334l128 128A42.666667 42.666667 0 0 1 938.666667 512v213.333333a42.666667 42.666667 0 0 1-42.666667 42.666667h-49.92a128.042667 128.042667 0 0 1-241.493333 0H419.413333a128.042667 128.042667 0 0 1-241.493333 0H128a42.666667 42.666667 0 0 1-42.666667-42.666667V213.333333a42.666667 42.666667 0 0 1 42.666667-42.666666h469.333333a42.666667 42.666667 0 0 1 0 85.333333H170.666667v426.666667h7.253333a128.042667 128.042667 0 0 1 241.493333 0h185.173334zM298.666667 768a42.666667 42.666667 0 1 0 0-85.333333 42.666667 42.666667 0 0 0 0 85.333333z m426.666666 0a42.666667 42.666667 0 1 0 0-85.333333 42.666667 42.666667 0 0 0 0 85.333333z" p-id="3360"></path></svg>