<?xml version="1.0" standalone="no"?><!DOCTYPE svg PUBLIC "-//W3C//DTD SVG 1.1//EN" "http://www.w3.org/Graphics/SVG/1.1/DTD/svg11.dtd"><svg t="1580206236801" class="icon" viewBox="0 0 1024 1024" version="1.1" xmlns="http://www.w3.org/2000/svg" p-id="2282" xmlns:xlink="http://www.w3.org/1999/xlink" width="200" height="200"><defs><style type="text/css"></style></defs><path d="M889.6 1012.9H134.7c-46.3 0-82.6-55.8-82.6-126.9V422.9c0-10.9 8.8-19.7 19.7-19.7s19.7 8.8 19.7 19.7V886c0 50.1 22.8 87.5 43.2 87.5h754.9c20.4 0 43.2-37.4 43.2-87.5V159c0-50.1-22.8-87.5-43.2-87.5H134.7c-20.4 0-43.2 37.4-43.2 87.5v121.1c0 10.9-8.8 19.7-19.7 19.7s-19.7-8.8-19.7-19.7V158.9C52.1 87.8 88.4 32 134.7 32h754.9c46.3 0 82.6 55.8 82.6 126.9v727c0 71.2-36.3 127-82.6 127z" p-id="2283"></path><path d="M609 188.5H380.9c-49.2 0-87.7-30.4-87.7-69.1V67.8c0-10.9 8.8-19.7 19.7-19.7s19.7 8.8 19.7 19.7v51.6c0 14 19.8 29.7 48.3 29.7H609c28.5 0 48.3-15.6 48.3-29.7V67.8c0-10.9 8.8-19.7 19.7-19.7 10.9 0 19.7 8.8 19.7 19.7v51.6c0 38.7-38.5 69.1-87.7 69.1zM783.3 415.2H241.1c-10.9 0-19.7-8.8-19.7-19.7s8.8-19.7 19.7-19.7h542.2c10.9 0 19.7 8.8 19.7 19.7s-8.8 19.7-19.7 19.7zM783.3 594.6H241.1c-10.9 0-19.7-8.8-19.7-19.7 0-10.9 8.8-19.7 19.7-19.7h542.2c10.9 0 19.7 8.8 19.7 19.7 0 10.8-8.8 19.7-19.7 19.7zM783.3 773.9H241.1c-10.9 0-19.7-8.8-19.7-19.7 0-10.9 8.8-19.7 19.7-19.7h542.2c10.9 0 19.7 8.8 19.7 19.7 0 10.9-8.8 19.7-19.7 19.7z" p-id="2284"></path></svg>