<?xml version="1.0" standalone="no"?><!DOCTYPE svg PUBLIC "-//W3C//DTD SVG 1.1//EN" "http://www.w3.org/Graphics/SVG/1.1/DTD/svg11.dtd"><svg t="1580206100620" class="icon" viewBox="0 0 1024 1024" version="1.1" xmlns="http://www.w3.org/2000/svg" p-id="1388" xmlns:xlink="http://www.w3.org/1999/xlink" width="200" height="200"><defs><style type="text/css"></style></defs><path d="M853.334613 1024H170.667947a137.813333 137.813333 0 0 1-128-145.066667V341.333333a213.333333 213.333333 0 0 1 170.666666-341.333333h597.333334a213.333333 213.333333 0 0 1 170.666666 341.333333v537.6a137.813333 137.813333 0 0 1-128 145.066667z m-128-85.333333h128c23.04 0 42.666667-27.306667 42.666667-59.733334v-469.333333a210.773333 210.773333 0 0 1-85.333333 17.066667 213.333333 213.333333 0 0 1-149.333334-61.013334 213.333333 213.333333 0 0 1-298.666666 0A213.333333 213.333333 0 0 1 213.334613 426.666667a210.773333 210.773333 0 0 1-85.333333-17.92v469.333333c0 32.426667 19.626667 59.733333 42.666667 59.733333h128V725.333333a128 128 0 0 1 128-128h170.666666a128 128 0 0 1 128 128z m-341.333333 0h256v-213.333334a42.666667 42.666667 0 0 0-42.666667-42.666666h-170.666666a42.666667 42.666667 0 0 0-42.666667 42.666666z m277.333333-685.226667a42.666667 42.666667 0 0 1 37.12 21.76A128 128 0 0 0 810.667947 341.333333a128 128 0 0 0 89.173333-36.266666 42.666667 42.666667 0 0 1 15.36-17.92A128 128 0 0 0 938.667947 213.333333a128 128 0 0 0-128-128H213.334613a128 128 0 1 0 112.213334 189.866667 42.666667 42.666667 0 0 1 74.24 0 128 128 0 0 0 224.426666 0 42.666667 42.666667 0 0 1 37.12-21.76z" p-id="1389"></path></svg>